<svg xmlns="http://www.w3.org/2000/svg" viewBox="0 0 24 24"><path d="M13.406 2.031c1.088 2.193-3.912 3.55-4.375 5.375-.424 1.678 2.966 3.625 2.969 3.625-.514-.694-.89-1.263-1.406-2.344-.873-1.827 5.165-3.719 2.812-6.656zm3.594 3s-3.806.247-4 2.563c-.086 1.03 1 1.593 1.031 2.343.026.614-.656 1.094-.656 1.094s1.118-.159 1.5-1.094c.423-1.037-.72-1.793-.594-2.624C14.402 6.518 17 5.03 17 5.03zm-7.094 6S6 11.007 6 12.094c0 1.136 5.098 1.198 8.75.5 0 0 .835-.444 1.094-.688-2.393.48-7.688.322-7.688-.094 0-.382 1.75-.78 1.75-.78zm7.781.031a2.147 2.147 0 0 0-1.312.407c.845-.183 1.563.337 1.563.937 0 1.35-1.938 2.625-1.938 2.625s3-.344 3-2.562c0-.916-.597-1.377-1.313-1.406zm-9.156 1.97C7.921 13.03 7 13.533 7 14c0 .937 4.597 1.65 8 .281l-1.188-.75c-2.306.757-6.54.513-5.28-.5zm.844 2c-.84 0-1.375.586-1.375 1 0 1.278 5.013 1.3 7 0l-1.25-.782c-1.483.68-5.233.767-4.375-.219zM5.75 17C4.553 16.962 4 17.563 4 18.063c0 2.657 13 2.558 13-.157 0-.45-.506-.678-.688-.781 1.061 2.596-10.75 2.407-10.75.875 0-.349.61-.693 1.407-.531 0 0-.272-.34-.657-.407A4.166 4.166 0 0 0 5.75 17zM19 19c-2.063 2.02-7.743 3.247-13 2 5.282 2.141 12.975.479 13-2z"/></svg>