<svg width="1022" height="512" xmlns="http://www.w3.org/2000/svg"><title>background</title><path fill="none" d="M-1-1h1024v514H-1z"/><title>Layer 1</title><path fill="#FFF" d="M500.737 48c-114.9 0-208 93.1-208 208s93.1 208 208 208 208-93.1 208-208-93.1-208-208-208zm0 398.7c-105.1 0-190.7-85.5-190.7-190.7 0-105.1 85.5-190.7 190.7-190.7 105.1 0 190.7 85.5 190.7 190.7 0 105.1-85.6 190.7-190.7 190.7z"/><path stroke="#FFF" stroke-linecap="undefined" stroke-linejoin="undefined" stroke-width="15.5" fill="none" d="M301.781 258.19L-.353 253.81m1021.485 1.748l-315.313.884"/></svg>