<?xml version="1.0" encoding="utf-8"?><svg xmlns="http://www.w3.org/2000/svg" xmlns:xlink="http://www.w3.org/1999/xlink"><symbol viewBox="0 0 512 512" id="ajax" xmlns="http://www.w3.org/2000/svg"><g fill-rule="evenodd" clip-rule="evenodd" fill="#008cdb"><path d="M185.188 351.236c-12.377-12.097-24.783-24.549-36.783-36.596-11.987-12.033-24.382-24.47-36.723-36.532l-2.324-2.275 2.215-2.377c3.878-4.156 7.963-8.201 11.916-12.096 3.904-3.861 7.938-7.853 11.724-11.905l2.174-2.339 2.42 2.069c5.607 4.802 10.784 10.095 15.79 15.215a559.305 559.305 0 0 0 6.427 6.503V140.908c0-26.029 5.207-43.609 16.384-55.367 10.992-11.55 27.915-17.543 53.252-18.874 8.413-.438 16.422-.667 23.798-.667 29.958 0 52.347 3.703 66.544 11.006 11.961 6.146 20.318 14.903 25.551 26.764 5.079 11.511 7.097 25.77 6.167 43.59l-.167 3.145h-58.498l.322-3.613c1.299-14.592-.844-25.279-6.368-31.771-3.822-4.498-9.191-6.941-16.417-7.467-2.772-.202-5.815-.296-9.303-.296-3.185 0-6.414.079-9.534.153-2.712.076-5.514.135-8.235.15-21.156.116-31.186 8.959-32.529 28.668-1.01 14.758-.69 29.792-.349 45.712.175 8.194.353 16.661.353 25.354v53.186c0 1.046-.094 2.662-.211 4.72-.09 1.521-.223 3.809-.296 5.96.182-.195.367-.394.561-.596.5-.548.748-.813.924-.986 2.394-2.388 4.779-4.712 7.086-6.961 4.596-4.476 8.932-8.707 13.138-13.254l2.262-2.459 2.446 2.286c4.157 3.876 8.194 7.958 12.102 11.905 3.855 3.906 7.849 7.943 11.905 11.725l2.489 2.324-2.378 2.437c-12.098 12.37-24.552 24.781-36.598 36.779-12.03 11.988-24.47 24.376-36.538 36.72l-2.322 2.381-2.377-2.326z"/><path d="M260.646 446c-21.69 0-39.499-.334-54.811-4.551-16.754-4.613-29.23-13.194-37.091-25.516-8.153-12.789-11.53-29.961-10.038-51.053l.219-3.089h58.371l-.246 3.546c-1.764 25.567 4.835 37.697 21.386 39.313 1.951.188 4.294.285 7.146.285 2.586 0 5.37-.083 8.061-.15 2.798-.075 5.685-.157 8.479-.157 16.043 0 25.832-1.586 31.61-10.005 5.283-7.703 5.696-18.934 5.696-33.945V241.276c-4.911 4.94-10.194 10.338-15.33 15.578-2.029 2.069-4.023 4.112-5.937 6.054l-2.154 2.193-2.352-1.969c-4.937-4.119-9.421-8.729-13.756-13.176-3.336-3.418-6.779-6.96-10.35-10.18l-2.532-2.287 2.354-2.47c17.646-18.507 36.091-36.776 53.934-54.442 6.32-6.271 12.855-12.733 19.259-19.125l2.324-2.316 2.344 2.294c12.317 12.029 24.659 24.425 36.602 36.413 11.924 11.968 24.254 24.342 36.534 36.359l2.271 2.211-2.112 2.365a299.944 299.944 0 0 1-24.28 24.286l-2.349 2.092-2.219-2.233c-2.279-2.298-4.646-4.728-6.936-7.074-4.746-4.865-9.611-9.869-14.347-14.345V352.18c0 1.848.007 3.688.011 5.529.049 18.652.098 36.262-4.616 50.202-4.995 14.776-15.464 25.396-31.108 31.581-15.216 6.002-35.036 6.508-54.037 6.508z"/></g></symbol><symbol viewBox="0 0 64 64" id="api" xmlns="http://www.w3.org/2000/svg"><g fill="#37474F"><path d="M24 29h3v3h1V22h-4v1h3v5h-3v-5h-1v9h1zm7 0h4v-6h-1v5h-3v-5h3v-1h-4v10h1zm9 2h-1v-8h1v-1h-3v1h1v8h-1v1h3z"/><path d="M19 8.429v3.811l5 4V19h-4v3h-4.763l-2.671-3.271c.268-.34.434-.763.434-1.229a2 2 0 1 0-1.224 1.843L14.763 23H20v2h-6.207l-1.783 1.783A1.976 1.976 0 0 0 11 26.5a2 2 0 1 0 2 2c0-.37-.107-.712-.283-1.01l1.49-1.49H20v5h-6.207l-1.783 1.783A1.976 1.976 0 0 0 11 32.5a2 2 0 1 0 2 2c0-.37-.107-.712-.283-1.01l1.49-1.49H20v3h4v1a1.996 1.996 0 0 0 .5 3.929A1.996 1.996 0 1 0 25 36v-1h4v1a1.996 1.996 0 0 0 .5 3.929A1.996 1.996 0 1 0 30 36v-1h4v1a1.996 1.996 0 0 0 .5 3.929A1.996 1.996 0 1 0 35 36v-1h4v1a1.996 1.996 0 0 0 .5 3.929A1.996 1.996 0 1 0 40 36v-1h4v-3h5.793l1.49 1.49c-.176.298-.283.64-.283 1.01a2 2 0 1 0 2-2c-.37 0-.712.107-1.01.283L50.207 31H44v-2h6.203l1.517-1.476c.347.293.79.476 1.28.476a2 2 0 1 0-2-2c0 .247.051.481.133.7L49.797 28H44v-5h5.237l2.986-3.657A2 2 0 1 0 51 17.5c0 .466.166.889.434 1.229L48.763 22H44v-3h-4v-2.76l5-4V8.429a1.996 1.996 0 0 0-.5-3.929 1.996 1.996 0 1 0-.5 3.929v3.331l-5 4V19h-4v-4.756l5-3.917V8.429a1.996 1.996 0 0 0-.5-3.929 1.996 1.996 0 1 0-.5 3.929V9.84l-5 3.917V19h-4v-5.244L25 9.84V8.429a1.996 1.996 0 0 0-.5-3.929 1.996 1.996 0 1 0-.5 3.929v1.898l5 3.917V19h-4v-3.24l-5-4V8.429a1.996 1.996 0 0 0-.5-3.929 1.996 1.996 0 1 0-.5 3.929zM11 18.5a1 1 0 1 1 0-2 1 1 0 0 1 0 2zm0 11a1 1 0 1 1 0-2 1 1 0 0 1 0 2zm0 6a1 1 0 1 1 0-2 1 1 0 0 1 0 2zm42-2a1 1 0 1 1 0 2 1 1 0 0 1 0-2zm0-8.5a1 1 0 1 1 0 2 1 1 0 0 1 0-2zm0-8.5a1 1 0 1 1 0 2 1 1 0 0 1 0-2zm-9.5-10a1 1 0 1 1 2 0 1 1 0 0 1-2 0zm-5 0a1 1 0 1 1 2 0 1 1 0 0 1-2 0zm-15 0a1 1 0 1 1 2 0 1 1 0 0 1-2 0zm2 31.429a1 1 0 1 1-2 0 1 1 0 0 1 2 0zm5 0a1 1 0 1 1-2 0 1 1 0 0 1 2 0zm5 0a1 1 0 1 1-2 0 1 1 0 0 1 2 0zm5 0a1 1 0 1 1-2 0 1 1 0 0 1 2 0zM43 20v14H21V20h22zM19.5 5.5a1 1 0 1 1 0 2 1 1 0 0 1 0-2z"/><path d="M57 10H46v1h11c.551 0 1 .449 1 1v32H6V12c0-.551.449-1 1-1h11v-1H7c-1.1 0-2 .9-2 2v35c0 1.1.9 2 2 2h18.714l-1.429 5H21a2 2 0 0 0-2 2v1h26v-1a2 2 0 0 0-2-2h-3.286l-1.429-5H57c1.1 0 2-.9 2-2V12c0-1.1-.9-2-2-2zM40 55h3c.551 0 1 .449 1 1H20c0-.551.449-1 1-1h19zm-1.326-1H25.326l1.429-5h10.491l1.428 5zM58 47c0 .551-.449 1-1 1H7c-.551 0-1-.449-1-1v-2h52v2z"/><path d="M21 10v1h2.237L23 10.814V10zm14.897 1l1.277-1H26.826l1.277 1zM43 10h-2v.814l-.237.186H43zm-9.656 3l1.277-1h-5.242l1.277 1z"/><path d="M7 12v30h50V12H46v.721l-.349.279H56v28H8V13h10.349L18 12.721V12z"/><path d="M25.791 13l-1.277-1h-2.613l1.25 1zm12.418 0h2.64l1.25-1h-2.613z"/></g></symbol><symbol viewBox="0 0 24 24" id="attach" xmlns="http://www.w3.org/2000/svg"><path d="M13 12c1.1 0 2-.9 2-2V5.5c0-.3-.2-.5-.5-.5s-.5.2-.5.5V10c0 .6-.4 1-1 1s-1-.4-1-1V3c0-1.1.9-2 2-2s2 .9 2 2h1c0-1.7-1.3-3-3-3s-3 1.3-3 3v7c0 1.1.9 2 2 2z"/><path d="M19.9 1h-2.4c.3.6.5 1.3.5 2h1v19H2V3h8c0-.7.2-1.4.6-2H1.1C.5 1 0 1.5 0 2.1v20.8c0 .6.5 1.1 1.1 1.1h18.8c.6 0 1.1-.5 1.1-1.1V2.1c0-.6-.5-1.1-1.1-1.1z"/><path d="M5 8h4v1H5zm0 2h4v1H5zm0 2h4v1H5zm0 2h11v1H5zm0 2h11v1H5zm0 2h11v1H5z"/></symbol><symbol viewBox="0 0 16 16" id="callback" xmlns="http://www.w3.org/2000/svg"><path d="M16 1.4L14.6 0 2 12.6V6H0v10h10v-2H3.4L16 1.4z" fill-rule="evenodd"/></symbol><symbol viewBox="0 0 1536 1536" id="cms" xmlns="http://www.w3.org/2000/svg"><path d="M860.799 1067.841l93.12 93.12c30.687 30.72 80.289 30.72 111.009 0 30.753-30.72 30.753-80.352 0-111.039l-92.769-93.123L1064.928 864S713.601 713.919 699.201 708.48c-7.68-2.88-15.681-4.479-24-4.479-37.119 0-67.2 29.76-67.2 66.561 0 8.64 1.599 16.641 4.479 24C617.919 808.32 768 1160.961 768 1160.961l92.799-93.12zM0 1376.001c0 70.719 57.279 128.001 128.001 128.001h1280.001c70.719 0 128.001-57.279 128.001-128.001L1536 192c0-70.719-57.279-128.001-128.001-128.001H128.001C57.279 63.999 0 121.281 0 192v1184.001zm230.4-864h1075.2a70.198 70.198 0 0 1 70.401 70.401v691.2a70.198 70.198 0 0 1-70.401 70.401L230.4 1344a70.198 70.198 0 0 1-70.401-70.401v-691.2a70.198 70.198 0 0 1 70.401-70.398zm-70.401-208.002c0-44.16 35.841-79.998 80.001-79.998s80.001 35.838 80.001 79.998S284.16 384 240 384s-80.001-35.841-80.001-80.001zm288 0c0-44.16 35.841-79.998 80.001-79.998s80.001 35.838 80.001 79.998S572.16 384 528 384s-80.001-35.841-80.001-80.001zm288 0c0-44.16 35.841-79.998 80.001-79.998s80.001 35.838 80.001 79.998S860.16 384 816 384s-80.001-35.841-80.001-80.001z"/></symbol><symbol viewBox="0 0 512 512" id="css3" xmlns="http://www.w3.org/2000/svg"><path d="M77.744 101.496l33.005 369.461L258.909 512l148.29-41.022 33.057-369.482H77.744zm290.904 120.819l-4.131 46.403-12.453 139.154-93.075 25.733-.062.021-93.014-25.754-6.491-72.783h45.571l3.377 37.755 50.568 13.646.049-.017 50.628-13.652 6.904-62.882-159.276.414-4.5-43 167.613-1.955 3.387-46.045-175.5.5-2.964-42.827h227.427l-4.058 45.289zM77.744 101.496v-.001zm127.569-38.382h-29.084l.071-43.626h29.013V3.205h-45.368v16.283h.072l-.071 43.626h-.001v16.283h45.368zm76.404-.156l-36.088-43.564h33.74V3.205h-58.095v15.461l36.249 43.563h-38.596v16.189h62.79zm75.338 0l-36.088-43.564h33.74V3.205h-58.094v15.461l36.248 43.563h-38.595v16.189h62.789z" fill="#424852"/></symbol><symbol viewBox="0 0 512 512" id="drag" xmlns="http://www.w3.org/2000/svg"><path d="M256 13.438L215.469 104h24.875v136.344H104v-24.875L13.437 256 104 296.531v-24.875h136.344V408h-24.875L256 498.563 296.531 408h-24.875V271.656H408v24.875L498.563 256 408 215.469v24.875H271.656V104h24.875L256 13.437z"/></symbol><symbol viewBox="0 0 256 566" preserveAspectRatio="xMinYMin meet" id="gulp" xmlns="http://www.w3.org/2000/svg"><path d="M197.28 548.749l5.427-90.43 14.985-25.58s-34.106 13.952-91.205 13.952c-57.1 0-90.689-13.694-90.689-13.694l16.794 27.904 5.941 87.848c0 9.418 31.059 17.052 69.374 17.052 38.313 0 69.373-7.634 69.373-17.052m-17.119-422.295l11.391-45.025 63.081-66.376L238.007.892l-66.784 70.707-13.226 53.793a886.14 886.14 0 0 0-29.873-.497c-70.336 0-127.355 8.016-127.355 17.902 0 9.887 57.019 17.902 127.355 17.902 70.335 0 127.353-8.015 127.353-17.902 0-7.28-30.924-13.546-75.316-16.343" fill="#D34A47"/><path d="M173.535 151.669s-2.467.553-9.724.584c-7.259.03-12.413-.047-14.466-1.917-.552-.502-.854-1.499-.851-2.174.006-1.285.918-2.042 2.08-2.516l1.099 1.724c-.478.165-.751.36-.752.568-.004.976 7.422 1.644 13.102 1.572 5.681-.07 12.545-.538 12.551-1.5 0-.291-.519-.565-1.422-.781l1.094-1.712c1.472.457 2.757 1.34 2.754 2.868-.014 2.598-3.32 2.993-5.465 3.284" fill="#FFF"/><path d="M254.509 15.184c1.586-1.832-.821-6.518-5.376-10.465C244.576.774 239.596-.94 238.007.892c-1.587 1.832.821 6.518 5.378 10.463 4.555 3.946 9.537 5.662 11.124 3.829m-60.263 312.681c-1.495-14.384 31.462-35.216 23.004-35.883-18.208 1.041-27.27 21.338-36.431 42.596-3.357 7.791-14.844 41.013-22.378 36.923-7.532-4.088 9.765-31.407 14.613-47.631-5.594 4.102-26.109 20.041-31.396 5.114-8.5 7.219-26.663 11.13-24.614-7.833-4.522 8.01-14.671 19.193-26.853 14.546-15.998-6.101 9.27-57.062 15.553-54.491 6.284 2.57-1.268 14.179-3.246 18.687-4.35 9.921-9.375 22.393-6.018 24.946 5.751 4.374 21.401-16.547 21.749-17.007 2.927-3.867 11.266-29.166 17.987-26.261 6.721 2.905-16.764 36.308-7.983 42.937 1.771 1.338 9.017-.825 13.425-5.594 2.852-3.085 1.871-9.918 11.378-32.59 9.507-22.671 17.98-50.905 24.5-48.754 6.52 2.15 1.146 16.641-1.193 22.043-10.976 25.354-29.956 67.241-21.005 64.07 8.951-3.17 13.612-3.356 22.377-13.613 8.765-10.257 8.361-27.152 14.203-26.793 5.844.36 4.863 5.777 3.446 9.902 5.75-6.58 27.256-20.438 32.448-6.713 6.15 16.249-30.769 39.72-21.564 38.523 8.975-1.167 23.515-10.376 29.723-18.749l17.088-153.626s-17.195 14.23-126.589 14.23c-109.395 0-124.811-13.934-124.811-13.934l14.548 140.224c7.722-21.947 26.059-66.339 54.963-64.849 13.148.678 30.7 25.995 15.665 26.853-6.364.362-7.01-12.637-14.546-14.546-5.438-1.378-13.009 3.043-17.902 7.833-9.758 9.55-30.745 47.229-27.972 66.014 3.533 23.949 33.048-8.322 38.042-17.903 3.517-6.749 5.893-26.745 13.585-24.647 7.693 2.098-.671 22.734-6.247 40.979-6.264 20.487-9.557 42.098-17.408 39.612-7.852-2.484 4.938-28.932 4.475-33.566-7.38 6.809-20.976 24.047-38.37 15.515l9.035 87.078s24.013 18.973 96.35 18.973c72.337 0 97.239-18.677 97.239-18.677l11.219-100.857c-9.179 8.938-38.229 24.81-40.089 6.919" fill="#D34A47"/></symbol><symbol viewBox="0 0 512 512" id="html5" xmlns="http://www.w3.org/2000/svg"><path fill-rule="evenodd" clip-rule="evenodd" fill="#e44d26" d="M93.063 116.909l29.656 332.633L255.8 486.486l133.449-36.997 29.689-332.58z"/><path d="M256 184.903H153.702l.977 10.945 10.027 112.422H256v-40.795h-53.984l-3.729-41.775H256v-40.797zm-45.614 176.303l-2.905-32.536h-40.953l5.716 64.056 83.568 23.198.188-.052v-42.445l-.179.048-45.435-12.269z" fill-rule="evenodd" clip-rule="evenodd" fill="#ebebeb"/><path fill-rule="evenodd" clip-rule="evenodd" fill="#f16529" d="M256 144.106v314.102l107.832-29.895 25.371-284.207z"/><path d="M255.858 308.271h50.236l-4.736 52.91-45.5 12.281v42.442l83.634-23.179.614-6.892 9.587-107.403.995-10.955h-94.83v40.796zm0-123.368V225.7H354.4l.818-9.17 1.859-20.682.975-10.945H255.858z" fill-rule="evenodd" clip-rule="evenodd" fill="#fff"/><path d="M163.079 46.997h-18.965V26.514h-20.731v62.028h20.732V67.771h18.964v20.771h20.732V26.514h-20.733v20.483zm29.745.086h18.252v41.459h20.733V47.083h18.26V26.514h-57.245v20.569zm101.246 1.226l-13.299-21.795h-21.617v62.028h20.285V57.797l14.273 22.055h.357l14.263-22.055v30.745h20.646V26.514h-21.626L294.07 48.309zm65.966 19.73V26.514h-20.738v62.028h49.894V68.039h-29.156z" fill-rule="evenodd" clip-rule="evenodd"/></symbol><symbol viewBox="0 0 512 512" id="jquery" xmlns="http://www.w3.org/2000/svg"><path fill="#3558A8" d="M0 512h512V0H0v512"/><path fill="#010101" opacity=".102" d="M389.001 225h-294l-14 69 256 218h175V330l-123-105"/><path d="M319.774 228.355l.299 1.259c.084.362-.145.654-.514.654m-23.758-4.073c-.074.348-.164.789-.226 1.081l-2.629 12.306 2.766-12.965.089-.422m-78.781 8.236l-1.452 5.142 1.452-5.14v-.002" fill="#5DA3C2"/><path d="M388.68 219.797l-1.566-6.622c-1.235-4.793-4.735-7.059-12.604-7.059h-33.091c-.763 0-1.524.344-1.68 1.09l-12.555 59.54c-.164.754-.211 1.289-.126 1.66.09.384 1.561.313 2.316.313h11.462c.767 0 2.16.058 2.565-.105.424-.175.611-1.31.767-2.062l4.051-20.876 4.949-23.157c.161-.742.911-1.351 1.671-1.351l32.779-.022c.757 0 1.236-.606 1.062-1.349" fill="#FFF"/><path d="M435.312 195.66c-.769.009-14.538 0-14.538 0-.762 0-1.741.819-2.165 1.448l-25.519 37.541c-.435.631-.927.608-1.097-.134l-1.885-8.228c-.162-.746-.924-1.354-1.695-1.354h-16.401c-.755 0-1.208.63-1.011 1.366l7.352 25.773c.213.739.232 1.943.043 2.682l-3.428 13.055c-.183.74.286.964 1.06.964h16.194c.76 0 1.547-.222 1.732-.964l3.432-13.238c.188-.738.716-1.742 1.172-2.356l41.645-55.228c.469-.605.4-1.331-.359-1.331l-4.532.004m-170.756 10.507h-14.802c-.754 0-1.527.266-1.678 1.013l-4.892 22.891-4.873 21.919c-.156.742-.911.691-1.674.691h-9.727c-9.624 0-8.513-6.079-6.534-15.192.023-.091 6.172-30.309 6.172-30.309.135-.745-.363-1.013-1.117-1.013h-14.103c-.762 0-1.518.268-1.666 1.013l-5.673 30.285c-2.83 16.375-2.916 30.784 16.074 31.259.313.012 29.984 0 29.984 0 .768 0 1.521-.252 1.685-.989l6.439-30.371 6.415-30.497c.001-.001.229-.7-.03-.7m-147.43-.051h-15.869c-.761 0-1.529.181-1.697.93l-2.864 12.391c-.163.732.324 1.318 1.092 1.318h15.195c.768 0 1.529-.692 1.69-1.431l2.759-12.484s.22-.724-.306-.724m-20.367 18.818c-.755 0-1.53.603-1.693 1.348l-2.139 9.45-4.773 21.824s-2.541 11.604-2.785 12.33c0 0-2.139 8.376-7.248 8.04-2.377-.156-5.094-.702-5.094-.702h-.007c-1.427-.432-1.527 1.051-1.702 1.792l-3.152 13.598c-.181.743.307 1.413 1.061 1.425 0 0 6.833.962 11.656.962h.793c11.919 0 18.215-7.008 22.24-26.036l4.717-22.025 4.424-20.492c.163-.746-.286-1.438-1.048-1.438m197.038 7.21c0 .828-2.613.671-2.613.671l-20.81-.152c-.719 0-.925-1.008-.975-1.728-.001-.025.053-.865.113-1.073 1.609-5.581 6.408-8.767 14.016-8.767 8.561 0 10.389 4.244 10.389 8.953m-7.158-24.101c-26.692 0-33.066 16.5-36.61 32.853-3.546 16.674-3.242 29.854 24.378 29.854h25.268c.748-.014 1.498-.698 1.647-1.439l2.715-10.576c.157-.75-.349-.971-1.103-.971H293.46c-8.998 0-12.219-2.771-11.904-8.996-.006-.707.805-2.51 1.565-2.51h38.265c1.68-.01 1.734-.994 1.734-.994 3.895-17.581 4.151-37.221-21.111-37.221m-129.47 34.359l-3.077 10.513c-.212.738-1.08 1.229-1.841 1.229h-15.869c-12.042 0-14.969-9.307-12.042-23.193 2.94-14.196 8.761-22.98 20.605-23.869 16.193-1.221 19.507 10.216 15.581 23.36l-3.357 11.96m14.102 11.14s7.476-18.16 9.174-28.658c2.321-14.045-4.706-34.418-31.875-34.418-27.008 0-38.727 19.448-43.213 40.594-4.467 21.297 1.381 39.839 28.24 39.689l40.994-.025c.755-.002 1.542-.613 1.735-1.341l3.458-13.16c.188-.743-.281-1.347-1.048-1.349l-3.301-.025-3.302-.014c-.648-.007-1.022-.428-.936-.986a.948.948 0 0 1 .074-.307" fill="#FFF"/></symbol><symbol viewBox="0 0 512 512" id="js" xmlns="http://www.w3.org/2000/svg"><path fill="#67A969" d="M0 512h512V0H0v512"/><path d="M93.801 109.799H107v23.402c0 4.91-.438 8.65-1.312 11.21-.875 2.563-2.634 4.734-5.283 6.516-2.646 1.783-6.036 2.673-10.167 2.673-4.369 0-7.753-.582-10.153-1.748-2.401-1.166-4.255-2.869-5.564-5.109-1.309-2.24-2.083-5.012-2.32-8.311l13.199-1.633c.019 1.79.182 3.115.489 3.981a4.294 4.294 0 0 0 1.555 2.095c.5.351 1.211.525 2.129.525 1.456 0 2.524-.549 3.205-1.649.682-1.103 1.023-2.954 1.023-5.561v-26.391m40.5 28.801a53.876 53.876 0 0 1-4.876 1.474c-2.305.612-3.765 1.215-4.377 1.809-.631.61-.947 1.309-.947 2.09 0 .889.311 1.613.932 2.18.623.565 1.535.849 2.743.849a7.071 7.071 0 0 0 3.529-.919c1.084-.612 1.854-1.36 2.31-2.241.458-.88.686-2.025.686-3.431V138.6m-9-6l-12-1.199c.424-2.118 1.037-3.789 1.837-5.007.8-1.219 1.952-2.274 3.459-3.168 1.081-.646 2.567-1.143 4.458-1.496 1.89-.354 3.937-.528 6.136-.528 3.531 0 6.368.199 8.512.598 2.145.402 3.928 1.235 5.353 2.503 1.005.884 1.799 2.128 2.376 3.737.578 1.609.868 3.146.868 4.607v13.734c0 1.463.092 2.609.276 3.44.184.832.59 1.891 1.215 3.179h-11.476c-.461-.813-.764-1.432-.904-1.856-.141-.426-.28-1.094-.417-2.006-1.53 1.487-3.053 2.55-4.565 3.188-2.069.85-4.473 1.274-7.209 1.274-3.637 0-6.4-.839-8.288-2.521s-2.831-3.754-2.831-6.217c0-2.313.677-4.214 2.034-5.7 1.356-1.492 3.862-2.603 7.518-3.328 4.375-.874 7.213-1.488 8.513-1.842a39.56 39.56 0 0 0 4.134-1.393c0-1.33-.266-2.264-.793-2.798-.528-.535-1.453-.802-2.779-.802-1.701 0-2.975.308-3.825.919-.661.476-1.196 1.37-1.602 2.682zm23.098-10.801h12.283l6.018 19.773 5.982-19.773H185L171.772 153h-10.538l-12.835-31.201m61.203 16.801a53.876 53.876 0 0 1-4.876 1.474c-2.305.612-3.765 1.215-4.376 1.809-.631.61-.948 1.309-.948 2.09 0 .889.311 1.613.932 2.18.623.565 1.537.849 2.743.849a7.075 7.075 0 0 0 3.53-.919c1.084-.612 1.854-1.36 2.312-2.241.456-.88.684-2.025.684-3.431V138.6m-9.001-6l-12-1.199c.425-2.118 1.037-3.789 1.837-5.007.8-1.219 1.952-2.274 3.458-3.168 1.082-.646 2.568-1.143 4.459-1.496 1.89-.354 3.936-.528 6.136-.528 3.53 0 6.368.199 8.512.598 2.144.402 3.929 1.235 5.354 2.503 1.006.884 1.799 2.128 2.376 3.737.579 1.609.868 3.146.868 4.607v13.734c0 1.463.092 2.609.276 3.44.183.832.589 1.891 1.214 3.179h-11.477c-.46-.813-.764-1.432-.904-1.856-.141-.426-.279-1.094-.417-2.006-1.53 1.487-3.053 2.55-4.566 3.188-2.069.85-4.472 1.274-7.209 1.274-3.637 0-6.4-.839-8.289-2.521-1.888-1.682-2.831-3.754-2.831-6.217 0-2.313.678-4.214 2.036-5.7 1.355-1.492 3.861-2.603 7.517-3.328 4.376-.874 7.214-1.488 8.514-1.842 1.3-.354 2.677-.817 4.135-1.393 0-1.33-.266-2.264-.793-2.798-.529-.535-1.454-.802-2.779-.802-1.7 0-2.975.308-3.825.919-.663.476-1.198 1.37-1.602 2.682zm46.2 6.179L260 138c.258 2.026.778 3.565 1.566 4.621 1.283 1.719 3.112 2.58 5.494 2.58 1.774 0 3.143-.448 4.101-1.347.96-.896 1.439-1.936 1.439-3.116 0-1.119-.425-2.121-1.274-3.01-.857-.889-3.053-1.727-6.592-2.513-5.793-1.319-9.924-3.06-12.394-5.222-2.492-2.164-3.739-4.915-3.739-8.26 0-2.206.641-4.288 1.921-6.244 1.282-1.957 3.208-3.492 5.779-4.611 2.573-1.118 6.099-1.678 10.581-1.678 5.493 0 9.683 1.034 12.566 3.106 2.885 2.072 4.602 5.37 5.151 9.896l-13.198.798c-.288-2.094-.89-3.618-1.806-4.57-.916-.954-2.179-1.43-3.791-1.43-1.326 0-2.326.329-2.998.989a3.25 3.25 0 0 0-1.005 2.404c0 .688.155 1.31.467 1.866.301.567 1.619 1.1 3.957 1.595 5.774 1.255 9.912 2.525 12.413 3.81 2.499 1.284 4.319 2.879 5.455 4.781 1.138 1.902 1.708 4.033 1.708 6.389 0 2.763-.763 5.312-2.288 7.645-1.525 2.336-3.657 4.104-6.394 5.313-2.738 1.207-6.188 1.809-10.351 1.809-7.313 0-12.376-1.394-15.191-4.185-2.816-2.792-4.408-6.337-4.775-10.637M314.601 141l12 1.201c-.624 2.325-1.651 4.336-3.079 6.031-1.428 1.697-3.25 3.015-5.465 3.958-2.217.94-5.035 1.409-8.463 1.409-3.299 0-6.049-.306-8.251-.919-2.199-.611-4.09-1.604-5.671-2.976a15.112 15.112 0 0 1-3.722-4.828c-.899-1.849-1.35-4.297-1.35-7.346 0-3.188.548-5.842 1.642-7.959.799-1.557 1.896-2.952 3.286-4.187 1.389-1.234 2.815-2.155 4.279-2.761 2.33-.95 5.313-1.424 8.943-1.424 5.088 0 8.966.864 11.636 2.596 2.668 1.731 4.537 4.267 5.613 7.604l-12 1.801c-.324-1.389-.917-2.436-1.78-3.142s-2.019-1.06-3.469-1.06c-1.832 0-3.313.728-4.449 2.18-1.134 1.454-1.701 3.651-1.701 6.595 0 2.626.568 4.619 1.707 5.981 1.137 1.363 2.587 2.043 4.351 2.043 1.467 0 2.701-.39 3.701-1.175s1.749-1.991 2.242-3.622M332 121.799h11.176v5.363c1.082-2.269 2.196-3.828 3.349-4.684 1.147-.853 2.569-1.277 4.263-1.277 1.77 0 3.708.527 5.813 1.583l-3.722 8.879c-1.418-.574-2.54-.864-3.365-.864-1.57 0-2.788.636-3.657 1.904-1.236 1.787-1.856 5.131-1.856 10.031V153h-12v-31.201m26.999 0h12V153h-12v-31.201m0-12h12v8.402h-12v-8.402zm31.116 27.779c0 2.786.515 4.855 1.537 6.202 1.024 1.346 2.323 2.019 3.891 2.019 1.38 0 2.537-.646 3.464-1.938.929-1.295 1.394-3.485 1.394-6.572 0-2.851-.484-4.944-1.453-6.282-.97-1.336-2.151-2.006-3.544-2.006-1.514 0-2.771.673-3.779 2.021-1.006 1.345-1.51 3.532-1.51 6.556M378.201 165v-43.201h11.128v4.107c1.544-1.719 2.959-2.88 4.247-3.486 1.736-.813 3.658-1.219 5.765-1.219 4.157 0 7.372 1.584 9.647 4.757 2.274 3.173 3.413 7.092 3.413 11.76 0 5.157-1.24 9.092-3.717 11.809-2.479 2.716-5.615 4.073-9.409 4.073-1.831 0-3.502-.272-5.016-.819a12.128 12.128 0 0 1-4.059-2.443V165h-11.999zm54.601-55.201v12h6.6v9h-6.6v11.29c0 1.355.13 2.251.394 2.69.398.681 1.102 1.02 2.11 1.02.906 0 2.17-.258 3.797-.777l.897 7.688c-2.987.592-5.777.89-8.369.89-3.008 0-5.225-.374-6.648-1.126-1.426-.747-2.479-1.891-3.16-3.426-.683-1.533-1.021-4.014-1.021-7.439v-10.81h-4.201v-9h4.201v-5.793l12-6.207" fill="#FFF"/><path d="M512 364.931C473.734 325.406 350 201 350 201H170l-20 167 147 144h215V364.931" fill="#010101" opacity=".191"/><path fill="#FFF" d="M306.814 266.761l35.54.176-2.965 23.954-1.628 12.881-7.967 64.216L235.777 400l-86.037-32.012 5.256-42.682h35.567l-2.139 17.59 52.016 19.324 56.9-19.324 4.997-40.296H192.923l-35.538-.176 2.966-23.952 1.628-12.883 7.966-64.215 94.019-32.012L350 201.374l-5.255 42.683h-35.57l2.14-17.594L259.3 207.14l-56.902 19.323-4.997 40.298h109.413"/></symbol><symbol viewBox="0 0 24 24" id="link" xmlns="http://www.w3.org/2000/svg"><path d="M15 2l.2 2c2.2-.2 4.1 1.4 4.4 3.6l.5 5c.2 2.2-1.4 4.1-3.6 4.4-2.2.2-4.1-1.4-4.4-3.6l-2 .2c.3 3.3 3.2 5.7 6.5 5.4s5.7-3.2 5.4-6.5l-.5-5C21.2 4.1 18.3 1.7 15 2z"/><path d="M9 22l-.2-2c-2.2.2-4.1-1.4-4.3-3.6l-.4-5c-.3-2.2 1.4-4.1 3.6-4.3s4.1 1.4 4.3 3.6l2-.2c-.3-3.3-3.2-5.7-6.5-5.4S1.7 8.3 2 11.6l.4 5c.4 3.3 3.3 5.7 6.6 5.4z"/></symbol><symbol viewBox="0 0 89.988 52.993" id="logo_154x73" xmlns="http://www.w3.org/2000/svg"><path fill="#17758F" d="M30.813 5v13.813l3.029 5.095L8.188 50v1h18.75l21.187-25.937-.064-2.083L34 5"/><path fill="#E5861B" d="M65.063 1.938L48.061 22.98l.064 2.083L58.98 38.755l2.083.183L61 27.625l-1.125-2.875L79.938 3.938v-1.75"/><path fill="none" d="M48.125 25.063l11 13.875h2.75V27.875l-2.562-3.5L79.938 3.938v-2H66L48.125 23.063 34 5h-3.187v13.813l3.062 5.062L8.188 50v1h18.75z"/></symbol><symbol viewBox="0 0 16 16" id="mail" xmlns="http://www.w3.org/2000/svg"><path d="M8 10c-.266 0-.5-.094-1-.336L0 6v7c0 .55.45 1 1 1h14c.55 0 1-.45 1-1V6L9 9.664c-.5.242-.734.336-1 .336zm7-8H1c-.55 0-1 .45-1 1v.758l8 4.205 8-4.205V3c0-.55-.45-1-1-1z"/></symbol><symbol viewBox="0 0 1022 512" id="node-icon" xmlns="http://www.w3.org/2000/svg"><path fill="none" d="M-1-1h1024v514H-1z"/><path fill="#FFF" d="M500.737 48c-114.9 0-208 93.1-208 208s93.1 208 208 208 208-93.1 208-208-93.1-208-208-208zm0 398.7c-105.1 0-190.7-85.5-190.7-190.7 0-105.1 85.5-190.7 190.7-190.7 105.1 0 190.7 85.5 190.7 190.7 0 105.1-85.6 190.7-190.7 190.7z"/><path stroke="#FFF" stroke-linecap="undefined" stroke-linejoin="undefined" stroke-width="15.5" fill="none" d="M301.781 258.19L-.353 253.81m1021.485 1.748l-315.313.884"/></symbol><symbol viewBox="0 0 512 512" id="phone" xmlns="http://www.w3.org/2000/svg"><path d="M352 320c-32 32-32 64-64 64s-64-32-96-64-64-64-64-96 32-32 64-64S128 32 96 32 0 128 0 128c0 64 65.75 193.75 128 256s192 128 256 128c0 0 96-64 96-96s-96-128-128-96z"/></symbol><symbol viewBox="0 0 512 512" id="php" xmlns="http://www.w3.org/2000/svg"><path d="M103.462 207.061c15.821 0 26.365 2.92 31.637 8.761 5.267 5.841 6.522 15.867 3.766 30.074-2.879 14.795-8.423 25.355-16.641 31.682-8.218 6.328-20.724 9.488-37.513 9.488h-25.33l15.549-80.005h28.532zM2 368.057h41.643l9.877-50.823h35.669c15.739 0 28.686-1.65 38.85-4.96 10.165-3.305 19.402-8.848 27.717-16.63 6.978-6.415 12.624-13.49 16.948-21.227 4.319-7.731 7.388-16.267 9.202-25.601 4.406-22.66 1.081-40.31-9.965-52.955s-28.619-18.967-52.709-18.967H39.154L2 368.057zm210.49-241.986h41.314l-9.878 50.823h36.806c23.157 0 39.132 4.042 47.924 12.117 8.791 8.08 11.425 21.17 7.91 39.266l-17.286 88.957h-41.97l16.436-84.582c1.87-9.622 1.184-16.185-2.064-19.684-3.248-3.5-10.159-5.251-20.729-5.251h-33.02L216.65 317.233h-41.315l37.155-191.162zm216 80.99c15.821 0 26.365 2.92 31.637 8.761 5.269 5.841 6.523 15.867 3.766 30.074-2.879 14.795-8.421 25.355-16.641 31.682-8.218 6.328-20.724 9.488-37.513 9.488H384.41l15.549-80.005h28.531zM327.029 368.057h41.643l9.876-50.823h35.669c15.739 0 28.686-1.65 38.851-4.96 10.164-3.305 19.401-8.848 27.717-16.63 6.979-6.415 12.624-13.49 16.948-21.227 4.318-7.731 7.388-16.267 9.201-25.601 4.406-22.66 1.082-40.31-9.965-52.955-11.046-12.645-28.619-18.967-52.709-18.967h-80.076l-37.155 191.163z" fill="#000003"/></symbol><symbol viewBox="0 0 32 32" id="psd" xmlns="http://www.w3.org/2000/svg"><path d="M21 26v2.003A1.995 1.995 0 0 1 19.003 30H3.997A2 2 0 0 1 2 27.993V5.007C2 3.898 2.9 3 4.009 3H14v6.002c0 1.111.898 1.998 2.006 1.998H21v2h-8.993A3.003 3.003 0 0 0 9 15.999V23a2.996 2.996 0 0 0 3.007 3H21zM15 3v5.997c0 .554.451 1.003.99 1.003H21l-6-7zm-3.005 11C10.893 14 10 14.9 10 15.992v7.016A2 2 0 0 0 11.995 25h17.01C30.107 25 31 24.1 31 23.008v-7.016A2 2 0 0 0 29.005 14h-17.01zM12 18v5h1v-3h1.995a2 2 0 0 0 0-4H12v2zm1-1v2h2.001A.997.997 0 0 0 16 18c0-.552-.443-1-.999-1H13zm7.005-1A1.998 1.998 0 0 0 18 18c0 1.105.888 2 2 2h.99c.558 0 1.01.444 1.01 1 0 .552-.443 1-.999 1h-1.002c-.552 0-.999-.456-.999-.996v-.01h-1v.005A2 2 0 0 0 20.005 23h.99A1.998 1.998 0 0 0 23 21c0-1.105-.888-2-2-2h-.99c-.558 0-1.01-.444-1.01-1 0-.552.443-1 .999-1h1.002c.552 0 .999.453.999 1h1a2 2 0 0 0-2.005-2h-.99zM24 16v7h2.995A1.998 1.998 0 0 0 29 20.994v-2.988A2.003 2.003 0 0 0 26.995 16H24zm1 1v5h2.001A.997.997 0 0 0 28 21v-3c0-.552-.443-1-.999-1H25z" fill="#929292" fill-rule="evenodd"/></symbol><symbol viewBox="0 0 512 512" id="sass" xmlns="http://www.w3.org/2000/svg"><path fill="#9C57A3" d="M-1 513h513V0H-1v513"/><path fill="#010101" opacity=".102" d="M401.785 240.469H135.266l-16.846 20.943-20.227 25.147L264.518 513H512V353.689l-110.215-113.22"/><path d="M294.802 226.195c-.076.348-.166.789-.227 1.081l-2.63 12.306 2.766-12.965.091-.422m-78.782 8.236l-1.454 5.142 1.454-5.14v-.002" fill="#5DA3C2"/><path d="M98.037 286.73v-20.848c3.871 3.199 8.071 5.6 12.599 7.199 4.529 1.601 9.1 2.4 13.714 2.4 2.713 0 5.081-.259 7.104-.772 2.021-.515 3.709-1.225 5.065-2.132 1.359-.907 2.369-1.976 3.033-3.204.666-1.228.997-2.563.997-4.006 0-1.857-.527-3.518-1.585-4.981-1.057-1.464-2.5-2.818-4.329-4.06-1.827-1.244-3.995-2.444-6.501-3.602a221.53 221.53 0 0 0-8.111-3.534c-7.399-3.102-12.914-6.894-16.542-11.379-3.628-4.485-5.443-9.899-5.443-16.243 0-4.971 1.003-9.241 3.01-12.812 2.008-3.571 4.743-6.515 8.207-8.828 3.464-2.314 7.475-4.014 12.032-5.1 4.556-1.085 9.385-1.628 14.484-1.628 5.001 0 9.432.296 13.297.888 3.864.594 7.424 1.505 10.681 2.732v19.692a31.715 31.715 0 0 0-5.187-3.021 39.479 39.479 0 0 0-5.785-2.163 42.604 42.604 0 0 0-5.914-1.266 40.818 40.818 0 0 0-5.592-.406c-2.415 0-4.614.243-6.599.729-1.985.485-3.661 1.171-5.025 2.058-1.364.885-2.422 1.945-3.172 3.182-.75 1.235-1.125 2.617-1.125 4.146 0 1.601.418 3.033 1.253 4.295.836 1.265 2.026 2.462 3.568 3.591 1.543 1.128 3.415 2.239 5.614 3.332 2.2 1.092 4.685 2.208 7.458 3.354 3.785 1.599 7.185 3.299 10.198 5.1 3.014 1.799 5.6 3.83 7.758 6.095a23.748 23.748 0 0 1 4.948 7.757c1.144 2.907 1.714 6.289 1.714 10.146 0 5.327-1.021 9.799-3.063 13.413a24.737 24.737 0 0 1-8.313 8.784c-3.5 2.244-7.57 3.854-12.213 4.832-4.643.979-9.542 1.468-14.699 1.468-5.3 0-10.339-.436-15.118-1.308-4.779-.87-8.919-2.17-12.418-3.9m129.333-34.562L217 219.898c-.771-2.413-1.3-5.292-1.585-8.634h-.557a30.737 30.737 0 0 1-1.736 8.335l-10.414 32.568h24.662m35.569 38.399h-23.698l-6.108-19.198H197.35l-6.15 19.198h-23.57l35.162-95.995h25.797l34.35 95.995zm7.885-3.836v-20.848c3.872 3.199 8.07 5.6 12.601 7.199 4.528 1.601 9.098 2.4 13.712 2.4 2.716 0 5.082-.259 7.104-.772 2.021-.515 3.711-1.225 5.067-2.132 1.357-.907 2.367-1.976 3.03-3.204.666-1.228.997-2.563.997-4.006 0-1.857-.528-3.518-1.585-4.981s-2.5-2.818-4.327-4.06c-1.829-1.244-3.996-2.444-6.503-3.602a220.857 220.857 0 0 0-8.112-3.534c-7.397-3.102-12.911-6.894-16.541-11.379-3.628-4.485-5.442-9.899-5.442-16.243 0-4.971 1.005-9.241 3.012-12.812 2.006-3.571 4.74-6.515 8.207-8.828 3.462-2.314 7.473-4.014 12.031-5.1 4.556-1.085 9.384-1.628 14.483-1.628 5 0 9.432.296 13.295.888 3.865.594 7.427 1.505 10.684 2.732v19.692a31.757 31.757 0 0 0-5.187-3.021 39.577 39.577 0 0 0-5.786-2.163 42.524 42.524 0 0 0-5.915-1.266 40.762 40.762 0 0 0-5.592-.406c-2.413 0-4.612.243-6.599.729-1.985.485-3.661 1.171-5.025 2.058-1.363.885-2.42 1.945-3.171 3.182-.749 1.235-1.125 2.617-1.125 4.146 0 1.601.419 3.033 1.254 4.295.834 1.265 2.024 2.462 3.566 3.591 1.545 1.128 3.416 2.239 5.615 3.332 2.199 1.092 4.686 2.208 7.457 3.354 3.783 1.599 7.184 3.299 10.199 5.1 3.014 1.799 5.6 3.83 7.757 6.095a23.764 23.764 0 0 1 4.948 7.757c1.143 2.907 1.716 6.289 1.716 10.146 0 5.327-1.021 9.799-3.064 13.413s-4.814 6.542-8.313 8.784c-3.502 2.244-7.572 3.854-12.214 4.832s-9.542 1.468-14.699 1.468c-5.301 0-10.339-.436-15.117-1.308-4.778-.87-8.917-2.17-12.418-3.9m76.796 0v-20.848c3.869 3.199 8.07 5.6 12.597 7.199 4.53 1.601 9.102 2.4 13.714 2.4 2.715 0 5.083-.259 7.104-.772 2.022-.515 3.711-1.225 5.067-2.132 1.355-.907 2.368-1.976 3.031-3.204.665-1.228.997-2.563.997-4.006 0-1.857-.528-3.518-1.585-4.981-1.058-1.464-2.5-2.818-4.328-4.06-1.829-1.244-3.997-2.444-6.505-3.602a221.219 221.219 0 0 0-8.107-3.534c-7.4-3.102-12.915-6.894-16.544-11.379-3.627-4.485-5.44-9.899-5.44-16.243 0-4.971 1.003-9.241 3.01-12.812 2.006-3.571 4.741-6.515 8.207-8.828 3.462-2.314 7.473-4.014 12.031-5.1 4.556-1.085 9.384-1.628 14.483-1.628 5 0 9.432.296 13.295.888 3.863.594 7.426 1.505 10.682 2.732v19.692a31.727 31.727 0 0 0-5.184-3.021 39.608 39.608 0 0 0-5.785-2.163 42.661 42.661 0 0 0-5.916-1.266 40.793 40.793 0 0 0-5.591-.406c-2.414 0-4.614.243-6.601.729-1.984.485-3.659 1.171-5.023 2.058-1.365.885-2.422 1.945-3.172 3.182-.75 1.235-1.126 2.617-1.126 4.146 0 1.601.419 3.033 1.254 4.295.837 1.265 2.026 2.462 3.568 3.591 1.542 1.128 3.413 2.239 5.613 3.332 2.199 1.092 4.686 2.208 7.456 3.354 3.786 1.599 7.186 3.299 10.199 5.1 3.014 1.799 5.602 3.83 7.758 6.095a23.737 23.737 0 0 1 4.95 7.757c1.141 2.907 1.714 6.289 1.714 10.146 0 5.327-1.021 9.799-3.063 13.413a24.734 24.734 0 0 1-8.315 8.784c-3.499 2.244-7.571 3.854-12.214 4.832-4.642.979-9.541 1.468-14.698 1.468-5.3 0-10.338-.436-15.116-1.308-4.78-.87-8.918-2.17-12.417-3.9" fill="#FFF"/></symbol><symbol viewBox="0 0 512 512" id="skype" xmlns="http://www.w3.org/2000/svg"><path d="M212.8 18.7c-.8-.5-1.7-.9-2.5-1.3-.9.2-1.7.3-2.6.5l5.1.8zM18.4 210.5c-.2.9-.3 1.8-.4 2.6.5.8.8 1.6 1.3 2.4l-.9-5zm475 90.8c.2-.9.3-1.8.5-2.7-.5-.8-.8-1.6-1.3-2.4l.8 5.1zM296 491.5c.8.5 1.7.9 2.5 1.3.9-.2 1.8-.3 2.7-.4l-5.2-.9z"/><path d="M493.9 298.6c-.2.9-.3 1.8-.5 2.7l-.9-5.2c.5.9.9 1.7 1.4 2.5 2.6-14.4 4-29.1 4-43.8 0-32.6-6.4-64.3-19-94.1-12.2-28.8-29.6-54.7-51.8-76.9S379 44.2 350.3 32c-29.8-12.6-61.5-19-94.1-19-15.4 0-30.8 1.4-45.8 4.3h-.1c.8.4 1.7.8 2.5 1.3l-5.1-.8c.9-.2 1.7-.3 2.6-.5C189.7 6.4 166.6.5 143.2.5 105 .5 69 15.4 42 42.4S.1 105.4.1 143.6c0 24.3 6.3 48.3 18 69.4.2-.9.3-1.8.4-2.6l.9 5.1c-.5-.8-.9-1.6-1.3-2.4-2.4 13.7-3.6 27.7-3.6 41.7 0 32.6 6.4 64.3 19 94.1 12.2 28.8 29.6 54.6 51.8 76.8s48.1 39.6 76.9 51.8c29.8 12.6 61.5 19 94.1 19 14.2 0 28.4-1.3 42.3-3.8-.8-.5-1.6-.9-2.5-1.3l5.2.9c-.9.2-1.8.3-2.7.4 21.4 12.1 45.7 18.6 70.4 18.6 38.2 0 74.2-14.9 101.2-41.9s41.9-63 41.9-101.2c-.1-24.3-6.4-48.3-18.2-69.6zM257.1 402.9c-85.9 0-124.3-42.2-124.3-73.9 0-16.2 12-27.6 28.5-27.6 36.8 0 27.2 52.8 95.8 52.8 35.1 0 54.5-19.1 54.5-38.6 0-11.7-5.8-24.7-28.9-30.4l-76.4-19.1c-61.5-15.4-72.7-48.7-72.7-80 0-64.9 61.1-89.3 118.5-89.3 52.9 0 115.2 29.2 115.2 68.2 0 16.7-14.5 26.4-31 26.4-31.4 0-25.6-43.4-88.8-43.4-31.4 0-48.7 14.2-48.7 34.5s24.8 26.8 46.3 31.7l56.6 12.6c61.9 13.8 77.6 50 77.6 84 0 52.7-40.5 92.1-122.2 92.1z"/></symbol><symbol viewBox="0 0 24 24" id="telegram" xmlns="http://www.w3.org/2000/svg"><path d="M9.028 20.837c-.714 0-.593-.271-.839-.949l-2.103-6.92L22.263 3.37"/><path d="M9.028 20.837c.552 0 .795-.252 1.105-.553l2.941-2.857-3.671-2.214"/><path d="M9.403 15.213l8.89 6.568c1.015.56 1.748.271 2-.942l3.62-17.053c.372-1.487-.564-2.159-1.534-1.72L1.125 10.263c-1.45.582-1.443 1.392-.264 1.753l5.455 1.7L18.94 5.753c.595-.36 1.143-.167.694.232"/></symbol><symbol viewBox="0 0 64 64" id="viber" xmlns="http://www.w3.org/2000/svg"><path d="M62.077 54.095c-.746 1.922-3.647 5.525-5.674 7.064-1.836 1.39-3.134 1.923-4.849 2.004-1.411.069-1.996-.051-3.8-.796-14.152-5.827-25.451-14.522-34.424-26.47-4.685-6.239-8.253-12.71-10.691-19.423-1.422-3.916-1.492-5.616-.324-7.62.505-.844 2.653-2.937 4.212-4.104 2.603-1.933 3.801-2.648 4.759-2.848.655-.142 1.795-.032 2.521.23.353.121.896.404 1.209.604 1.916 1.269 7.247 8.083 8.99 11.483.997 1.943 1.331 3.382 1.019 4.449-.321 1.147-.856 1.75-3.245 3.673-.958.774-1.855 1.57-1.996 1.781-.364.523-.657 1.549-.657 2.274.013 1.682 1.102 4.73 2.532 7.076 1.108 1.821 3.095 4.156 5.061 5.949 2.308 2.112 4.344 3.551 6.642 4.689 2.954 1.469 4.758 1.841 6.078 1.227.333-.15.686-.352.797-.442.102-.091.877-1.037 1.725-2.084 1.633-2.053 2.004-2.385 3.123-2.768 1.421-.482 2.871-.352 4.334.393 1.11.574 3.529 2.073 5.091 3.16 2.055 1.439 6.453 5.022 7.046 5.736 1.047 1.29 1.225 2.942.521 4.763z"/><path d="M61.554 49.333c-.593-.714-4.991-4.296-7.046-5.736-1.562-1.087-3.98-2.586-5.091-3.16-1.463-.745-2.913-.875-4.334-.393-1.119.383-1.49.715-3.123 2.768-.848 1.047-1.623 1.993-1.725 2.084-.111.09-.464.292-.797.442-1.32.614-3.124.242-6.078-1.227-2.298-1.138-4.334-2.577-6.642-4.689-1.966-1.793-3.952-4.128-5.061-5.949-1.431-2.346-2.52-5.395-2.532-7.076 0-.725.293-1.75.657-2.274.057-.086.239-.269.499-.504-3.558 2.134-7.83 3.38-12.427 3.38-.118 0-.235-.008-.354-.01a81.37 81.37 0 0 0 5.829 8.909c8.973 11.948 20.271 20.643 34.424 26.47 1.804.745 2.389.866 3.8.796 1.715-.082 3.013-.615 4.849-2.004 2.026-1.539 4.928-5.142 5.674-7.064.705-1.822.527-3.474-.522-4.763zM31.597 1.276c.475-.432.807-.493 2.45-.441.855.03 2.116.13 2.803.21 3.466.433 6.268 1.268 9.342 2.768 3.025 1.479 4.96 2.878 7.521 5.425 2.399 2.404 3.728 4.228 5.14 7.056 1.966 3.944 3.086 8.634 3.276 13.798.069 1.761.021 2.154-.383 2.657-.767.976-2.447.814-3.022-.282-.183-.362-.233-.674-.293-2.084-.103-2.163-.253-3.562-.554-5.233-1.189-6.552-4.335-11.786-9.354-15.54-4.184-3.14-8.508-4.67-14.172-5.002-1.915-.11-2.25-.181-2.682-.513-.808-.635-.848-2.124-.072-2.819z"/><path d="M43.611 14.24c-2.026-1.208-5.021-2.105-7.751-2.326-.988-.08-1.532-.282-1.905-.715-.573-.654-.635-1.54-.149-2.274.522-.815 1.328-.947 3.738-.584 6.117.896 10.856 3.734 13.961 8.344 1.744 2.596 2.831 5.646 3.206 8.917.13 1.198.13 3.382-.011 3.744-.133.342-.556.806-.919.997-.392.201-1.229.182-1.691-.061-.776-.392-1.008-1.016-1.008-2.707 0-2.607-.676-5.355-1.845-7.488a15.293 15.293 0 0 0-5.626-5.847z"/><path d="M47.02 27.655c-.596.544-1.693.564-2.36.05-.481-.362-.635-.745-.745-1.781-.133-1.379-.373-2.345-.787-3.24-.888-1.903-2.448-2.889-5.088-3.212-1.241-.15-1.613-.291-2.018-.764-.735-.876-.452-2.295.565-2.818.383-.19.544-.212 1.39-.161.525.03 1.301.121 1.715.211 1.986.423 3.506 1.177 4.807 2.396 1.674 1.581 2.592 3.493 2.994 6.24.271 1.791.159 2.496-.473 3.079zm14.534 21.678c-.593-.714-4.991-4.296-7.046-5.736-1.562-1.087-3.98-2.586-5.091-3.16-1.463-.745-2.913-.875-4.334-.393-1.119.383-1.49.715-3.123 2.768-.848 1.047-1.623 1.993-1.725 2.084-.105.086-.432.271-.751.419a37.015 37.015 0 0 1-8.747 7.696c5.154 3.692 10.811 6.8 17.018 9.355 1.804.745 2.389.866 3.8.796 1.715-.082 3.013-.615 4.849-2.004 2.026-1.539 4.928-5.142 5.674-7.064.703-1.82.525-3.472-.524-4.761z"/></symbol><symbol viewBox="0 0 100 100" id="whatsapp" xmlns="http://www.w3.org/2000/svg"><path d="M95 49.247c0 24.213-19.779 43.841-44.182 43.841a44.256 44.256 0 0 1-21.357-5.455L5 95.406l7.975-23.522a43.38 43.38 0 0 1-6.34-22.637c0-24.213 19.781-43.841 44.184-43.841C75.223 5.406 95 25.034 95 49.247M50.818 12.388c-20.484 0-37.146 16.535-37.146 36.859 0 8.066 2.629 15.535 7.076 21.611l-4.641 13.688 14.275-4.537a37.122 37.122 0 0 0 20.437 6.097c20.481 0 37.146-16.533 37.146-36.858-.001-20.324-16.664-36.86-37.147-36.86m22.311 46.956c-.273-.447-.994-.717-2.076-1.254-1.084-.537-6.41-3.138-7.4-3.494-.993-.359-1.717-.539-2.438.536-.721 1.076-2.797 3.495-3.43 4.212-.632.719-1.263.809-2.347.271-1.082-.537-4.571-1.673-8.708-5.334-3.219-2.847-5.393-6.364-6.025-7.44-.631-1.075-.066-1.656.475-2.191.488-.482 1.084-1.255 1.625-1.882.543-.628.723-1.075 1.082-1.793.363-.717.182-1.344-.09-1.883-.27-.537-2.438-5.825-3.34-7.976-.902-2.151-1.803-1.793-2.436-1.793-.631 0-1.354-.09-2.076-.09s-1.896.269-2.889 1.344c-.992 1.076-3.789 3.676-3.789 8.963 0 5.288 3.879 10.397 4.422 11.114.541.716 7.49 11.92 18.5 16.223 11.011 4.3 11.011 2.865 12.997 2.685 1.984-.179 6.406-2.599 7.312-5.107.9-2.512.9-4.663.631-5.111"/></symbol></svg>